<svg width="116" height="116" viewBox="0 0 116 116" fill="none" xmlns="http://www.w3.org/2000/svg">
<g filter="url(#filter0_d_3_4)">
<rect x="4" width="108" height="108" rx="54" fill="url(#paint0_linear_3_4)"/>
</g>
<path d="M55.6903 41.203C57.1378 40.449 58.8622 40.449 60.3097 41.203L97.4856 60.5654C101.073 62.4337 101.073 67.5663 97.4856 69.4346L60.3097 88.797C58.8622 89.551 57.1378 89.551 55.6903 88.797L18.5144 69.4346C14.9273 67.5663 14.9273 62.4337 18.5144 60.5654L55.6903 41.203Z" fill="url(#paint1_linear_3_4)"/>
<path d="M42.35 71.75C40.0167 71.75 37.825 71.3417 35.775 70.525C33.7417 69.6917 31.95 68.475 30.4 66.875C28.8667 65.275 27.6667 63.3167 26.8 61C25.9333 58.6667 25.5 56 25.5 53C25.5 49.0667 26.2333 45.7083 27.7 42.925C29.1667 40.125 31.175 37.9833 33.725 36.5C36.275 35 39.15 34.25 42.35 34.25C46.7833 34.25 50.2917 35.2833 52.875 37.35C55.475 39.4 57.2333 42.2833 58.15 46L52 46.975C51.3167 44.8417 50.2 43.1417 48.65 41.875C47.1 40.5917 45.125 39.95 42.725 39.95C40.3083 39.9167 38.3 40.4417 36.7 41.525C35.1 42.6083 33.8917 44.1333 33.075 46.1C32.275 48.0667 31.875 50.3667 31.875 53C31.875 55.6333 32.275 57.925 33.075 59.875C33.875 61.8083 35.075 63.3167 36.675 64.4C38.2917 65.4833 40.3083 66.0417 42.725 66.075C44.5417 66.0917 46.1333 65.7667 47.5 65.1C48.8667 64.4167 49.9833 63.3917 50.85 62.025C51.7167 60.6417 52.3 58.9167 52.6 56.85H46.25V52.125H59C59.0333 52.3917 59.0583 52.7833 59.075 53.3C59.0917 53.8167 59.1 54.125 59.1 54.225C59.1 57.625 58.425 60.65 57.075 63.3C55.7417 65.9333 53.825 68 51.325 69.5C48.825 71 45.8333 71.75 42.35 71.75ZM64.1211 71V35H78.9961C79.3461 35 79.7961 35.0167 80.3461 35.05C80.8961 35.0667 81.4044 35.1167 81.8711 35.2C83.9544 35.5167 85.6711 36.2083 87.0211 37.275C88.3878 38.3417 89.3961 39.6917 90.0461 41.325C90.7128 42.9417 91.0461 44.7417 91.0461 46.725C91.0461 48.6917 90.7128 50.4917 90.0461 52.125C89.3794 53.7417 88.3628 55.0833 86.9961 56.15C85.6461 57.2167 83.9378 57.9083 81.8711 58.225C81.4044 58.2917 80.8878 58.3417 80.3211 58.375C79.7711 58.4083 79.3294 58.425 78.9961 58.425H70.1461V71H64.1211ZM70.1461 52.8H78.7461C79.0794 52.8 79.4544 52.7833 79.8711 52.75C80.2878 52.7167 80.6711 52.65 81.0211 52.55C82.0211 52.3 82.8044 51.8583 83.3711 51.225C83.9544 50.5917 84.3628 49.875 84.5961 49.075C84.8461 48.275 84.9711 47.4917 84.9711 46.725C84.9711 45.9583 84.8461 45.175 84.5961 44.375C84.3628 43.5583 83.9544 42.8333 83.3711 42.2C82.8044 41.5667 82.0211 41.125 81.0211 40.875C80.6711 40.775 80.2878 40.7167 79.8711 40.7C79.4544 40.6667 79.0794 40.65 78.7461 40.65H70.1461V52.8Z" fill="white"/>
<defs>
<filter id="filter0_d_3_4" x="0" y="0" width="116" height="116" filterUnits="userSpaceOnUse" color-interpolation-filters="sRGB">
<feFlood flood-opacity="0" result="BackgroundImageFix"/>
<feColorMatrix in="SourceAlpha" type="matrix" values="0 0 0 0 0 0 0 0 0 0 0 0 0 0 0 0 0 0 127 0" result="hardAlpha"/>
<feOffset dy="4"/>
<feGaussianBlur stdDeviation="2"/>
<feComposite in2="hardAlpha" operator="out"/>
<feColorMatrix type="matrix" values="0 0 0 0 0 0 0 0 0 0 0 0 0 0 0 0 0 0 0.25 0"/>
<feBlend mode="normal" in2="BackgroundImageFix" result="effect1_dropShadow_3_4"/>
<feBlend mode="normal" in="SourceGraphic" in2="effect1_dropShadow_3_4" result="shape"/>
</filter>
<linearGradient id="paint0_linear_3_4" x1="100" y1="20" x2="29" y2="99" gradientUnits="userSpaceOnUse">
<stop stop-color="#00529B"/>
<stop offset="1" stop-color="#002657"/>
</linearGradient>
<linearGradient id="paint1_linear_3_4" x1="58" y1="40" x2="58" y2="90" gradientUnits="userSpaceOnUse">
<stop stop-color="#FB6502"/>
<stop offset="1" stop-color="#A34100"/>
</linearGradient>
</defs>
</svg>
